{
  "accessors": [
    {
      "bufferView": 2,
      "componentType": 5126,
      "count": 3216,
      "max": [
        0.28277406096458435,
        0.28277406096458435,
        0.5655481815338135
      ],
      "min": [
        -0.28277406096458435,
        -0.28277406096458435,
        5.960464477539063e-08
      ],
      "type": "VEC3"
    },
    {
      "bufferView": 2,
      "byteOffset": 38592,
      "componentType": 5126,
      "count": 3216,
      "max": [
        1.0,
        1.0,
        1.0
      ],
      "min": [
        -1.0,
        -1.0,
        -1.0
      ],
      "type": "VEC3"
    },
    {
      "bufferView": 1,
      "componentType": 5126,
      "count": 3216,
      "max": [
        1.0,
        0.9750000238418579
      ],
      "min": [
        0.0,
        0.0
      ],
      "type": "VEC2"
    },
    {
      "bufferView": 0,
      "componentType": 5125,
      "count": 6276,
      "type": "SCALAR"
    },
    {
      "bufferView": 2,
      "byteOffset": 77184,
      "componentType": 5126,
      "count": 376,
      "max": [
        1.4963295459747314,
        3.0529685020446777,
        1.3829801082611084
      ],
      "min": [
        -1.4963295459747314,
        -3.052968978881836,
        -2.106081962585449
      ],
      "type": "VEC3"
    },
    {
      "bufferView": 2,
      "byteOffset": 81696,
      "componentType": 5126,
      "count": 376,
      "max": [
        1.0,
        1.0,
        1.0
      ],
      "min": [
        -1.0,
        -1.0,
        -1.0
      ],
      "type": "VEC3"
    },
    {
      "bufferView": 1,
      "byteOffset": 25728,
      "componentType": 5126,
      "count": 376,
      "max": [
        0.9638800024986267,
        1.020783543586731
      ],
      "min": [
        0.0030558938160538673,
        -0.03336135670542717
      ],
      "type": "VEC2"
    },
    {
      "bufferView": 0,
      "byteOffset": 25104,
      "componentType": 5125,
      "count": 792,
      "type": "SCALAR"
    },
    {
      "bufferView": 2,
      "byteOffset": 86208,
      "componentType": 5126,
      "count": 376,
      "max": [
        1.4963295459747314,
        3.0529685020446777,
        1.3829801082611084
      ],
      "min": [
        -1.4963295459747314,
        -3.052968978881836,
        -2.106081962585449
      ],
      "type": "VEC3"
    },
    {
      "bufferView": 2,
      "byteOffset": 90720,
      "componentType": 5126,
      "count": 376,
      "max": [
        1.0,
        1.0,
        1.0
      ],
      "min": [
        -1.0,
        -1.0,
        -1.0
      ],
      "type": "VEC3"
    },
    {
      "bufferView": 1,
      "byteOffset": 28736,
      "componentType": 5126,
      "count": 376,
      "max": [
        0.9638800024986267,
        1.020783543586731
      ],
      "min": [
        0.0030558938160538673,
        -0.03336135670542717
      ],
      "type": "VEC2"
    },
    {
      "bufferView": 0,
      "byteOffset": 28272,
      "componentType": 5125,
      "count": 792,
      "type": "SCALAR"
    },
    {
      "bufferView": 3,
      "componentType": 5126,
      "count": 114,
      "max": [
        2.566666603088379
      ],
      "min": [
        0.0
      ],
      "type": "SCALAR"
    },
    {
      "bufferView": 4,
      "componentType": 5126,
      "count": 114,
      "max": [
        110.62301635742188,
        110.62301635742188,
        108.32398223876953
      ],
      "min": [
        9.999999960041972e-13,
        9.999999960041972e-13,
        9.999999960041972e-13
      ],
      "type": "VEC3"
    },
    {
      "bufferView": 3,
      "byteOffset": 456,
      "componentType": 5126,
      "count": 8,
      "max": [
        2.566666603088379
      ],
      "min": [
        0.0
      ],
      "type": "SCALAR"
    },
    {
      "bufferView": 5,
      "componentType": 5126,
      "count": 8,
      "max": [
        0.0,
        0.27059805393218994,
        0.27059805393218994,
        1.0
      ],
      "min": [
        -0.6532815098762512,
        0.0,
        0.0,
        0.6532814502716064
      ],
      "type": "VEC4"
    }
  ],
  "animations": [
    {
      "channels": [
        {
          "sampler": 0,
          "target": {
            "node": 4,
            "path": "scale"
          }
        },
        {
          "sampler": 1,
          "target": {
            "node": 4,
            "path": "rotation"
          }
        }
      ],
      "name": "block|blockAction",
      "samplers": [
        {
          "input": 12,
          "interpolation": "LINEAR",
          "output": 13
        },
        {
          "input": 14,
          "interpolation": "LINEAR",
          "output": 15
        }
      ]
    }
  ],
  "asset": {
    "extras": {
      "author": "vmek3d (https://sketchfab.com/vmek3d)",
      "license": "CC-BY-4.0 (http://creativecommons.org/licenses/by/4.0/)",
      "source": "https://sketchfab.com/3d-models/mario-broslucky-block-question-block-915130562677451eb5e559f19f257283",
      "title": "Mario Bros🍄Lucky Block / Question Block"
    },
    "generator": "Sketchfab-15.24.0",
    "version": "2.0"
  },
  "bufferViews": [
    {
      "buffer": 0,
      "byteLength": 31440,
      "name": "floatBufferViews",
      "target": 34963
    },
    {
      "buffer": 0,
      "byteLength": 31744,
      "byteOffset": 31440,
      "byteStride": 8,
      "name": "floatBufferViews",
      "target": 34962
    },
    {
      "buffer": 0,
      "byteLength": 95232,
      "byteOffset": 63184,
      "byteStride": 12,
      "name": "floatBufferViews",
      "target": 34962
    },
    {
      "buffer": 0,
      "byteLength": 488,
      "byteOffset": 158416,
      "name": "floatBufferViews"
    },
    {
      "buffer": 0,
      "byteLength": 1368,
      "byteOffset": 158904,
      "byteStride": 12,
      "name": "floatBufferViews"
    },
    {
      "buffer": 0,
      "byteLength": 128,
      "byteOffset": 160272,
      "byteStride": 16,
      "name": "floatBufferViews"
    }
  ],
  "buffers": [
    {
      "byteLength": 160400,
      "uri": "scene.bin"
    }
  ],
  "materials": [
    {
      "doubleSided": true,
      "name": "Yellow",
      "pbrMetallicRoughness": {
        "baseColorFactor": [
          1.0,
          0.411937,
          0.006432289999999998,
          1.0
        ],
        "metallicFactor": 0.0,
        "roughnessFactor": 0.004861716331590891
      }
    },
    {
      "doubleSided": true,
      "emissiveFactor": [
        1.0,
        1.0,
        1.0
      ],
      "name": "Sign",
      "pbrMetallicRoughness": {
        "baseColorFactor": [
          0.8,
          0.8,
          0.8,
          1.0
        ],
        "metallicFactor": 0.0,
        "roughnessFactor": 0.5396535729101384
      }
    }
  ],
  "meshes": [
    {
      "name": "block_Yellow_0",
      "primitives": [
        {
          "attributes": {
            "NORMAL": 1,
            "POSITION": 0,
            "TEXCOORD_0": 2
          },
          "indices": 3,
          "material": 0,
          "mode": 4
        }
      ]
    },
    {
      "name": "Cube.002_Sign_0",
      "primitives": [
        {
          "attributes": {
            "NORMAL": 5,
            "POSITION": 4,
            "TEXCOORD_0": 6
          },
          "indices": 7,
          "material": 1,
          "mode": 4
        }
      ]
    },
    {
      "name": "Cube.003_Sign_0",
      "primitives": [
        {
          "attributes": {
            "NORMAL": 9,
            "POSITION": 8,
            "TEXCOORD_0": 10
          },
          "indices": 11,
          "material": 1,
          "mode": 4
        }
      ]
    }
  ],
  "nodes": [
    {
      "children": [
        1
      ],
      "matrix": [
        1.0,
        0.0,
        0.0,
        0.0,
        0.0,
        2.220446049250313e-16,
        -1.0,
        0.0,
        0.0,
        1.0,
        2.220446049250313e-16,
        0.0,
        0.0,
        0.0,
        0.0,
        1.0
      ],
      "name": "Sketchfab_model"
    },
    {
      "children": [
        2
      ],
      "matrix": [
        0.009999999776482582,
        0.0,
        0.0,
        0.0,
        0.0,
        0.0,
        0.009999999776482582,
        0.0,
        0.0,
        -0.009999999776482582,
        0.0,
        0.0,
        0.0,
        0.0,
        0.0,
        1.0
      ],
      "name": "FBXMarioBrick.fbx"
    },
    {
      "children": [
        3
      ],
      "name": "Object_2"
    },
    {
      "children": [
        4
      ],
      "name": "RootNode"
    },
    {
      "children": [
        5,
        6,
        8
      ],
      "name": "block",
      "rotation": [
        -0.6532815098762512,
        0.27059802412986755,
        0.27059808373451233,
        0.6532814502716064
      ],
      "scale": [
        100.0,
        100.0,
        100.0
      ],
      "translation": [
        -2.220446049250313e-14,
        0.0,
        -4.440892098500626e-14
      ]
    },
    {
      "mesh": 0,
      "name": "block_Yellow_0"
    },
    {
      "children": [
        7
      ],
      "name": "Cube.002",
      "rotation": [
        8.147778258567808e-24,
        8.147778258567808e-24,
        -0.0,
        1.0
      ],
      "scale": [
        0.10152222961187363,
        0.10152222961187363,
        0.09972276538610458
      ],
      "translation": [
        -1.5831843613867136e-09,
        1.7302404842212127e-08,
        0.3183545768260956
      ]
    },
    {
      "mesh": 1,
      "name": "Cube.002_Sign_0"
    },
    {
      "children": [
        9
      ],
      "name": "Cube.003",
      "rotation": [
        5.7613485913903175e-24,
        5.7613497746816754e-24,
        0.7071068286895752,
        0.7071067094802856
      ],
      "scale": [
        0.10152222961187363,
        0.10152222961187363,
        0.09972276538610458
      ],
      "translation": [
        -2.1977360376013166e-08,
        -2.285421019099232e-10,
        0.3183545470237732
      ]
    },
    {
      "mesh": 2,
      "name": "Cube.003_Sign_0"
    }
  ],
  "scene": 0,
  "scenes": [
    {
      "name": "Sketchfab_Scene",
      "nodes": [
        0
      ]
    }
  ]
}
