{
  "accessors": [
    {
      "bufferView": 2,
      "componentType": 5126,
      "count": 1686,
      "max": [
        9.678462982177734,
        17.089195251464844,
        10.794149398803711
      ],
      "min": [
        -9.01734447479248,
        0.015901999548077583,
        -8.976147651672363
      ],
      "type": "VEC3"
    },
    {
      "bufferView": 2,
      "byteOffset": 20232,
      "componentType": 5126,
      "count": 1686,
      "max": [
        0.99968421459198,
        0.9999967813491821,
        0.9969040155410767
      ],
      "min": [
        -0.9904155135154724,
        -0.9999985098838806,
        -0.9997376203536987
      ],
      "type": "VEC3"
    },
    {
      "bufferView": 1,
      "componentType": 5126,
      "count": 1686,
      "max": [
        0.9855530261993408,
        0.9750509858131409
      ],
      "min": [
        0.010582000017166138,
        0.009544000029563904
      ],
      "type": "VEC2"
    },
    {
      "bufferView": 0,
      "componentType": 5125,
      "count": 8712,
      "type": "SCALAR"
    }
  ],
  "asset": {
    "extras": {
      "author": "JMDavis (https://sketchfab.com/hunbjorn)",
      "license": "CC-BY-4.0 (http://creativecommons.org/licenses/by/4.0/)",
      "source": "https://sketchfab.com/3d-models/alphabet-blocks-ef3ca21ee4354987b33468824f32f1de",
      "title": "Alphabet Blocks"
    },
    "generator": "Sketchfab-12.67.0",
    "version": "2.0"
  },
  "bufferViews": [
    {
      "buffer": 0,
      "byteLength": 34848,
      "name": "floatBufferViews",
      "target": 34963
    },
    {
      "buffer": 0,
      "byteLength": 13488,
      "byteOffset": 34848,
      "byteStride": 8,
      "name": "floatBufferViews",
      "target": 34962
    },
    {
      "buffer": 0,
      "byteLength": 40464,
      "byteOffset": 48336,
      "byteStride": 12,
      "name": "floatBufferViews",
      "target": 34962
    }
  ],
  "buffers": [
    {
      "byteLength": 88800,
      "uri": "scene.bin"
    }
  ],
  "images": [
    {
      "uri": "textures/Block_MaterialLP_baseColor.png"
    },
    {
      "uri": "textures/Block_MaterialLP_metallicRoughness.png"
    }
  ],
  "materials": [
    {
      "doubleSided": true,
      "name": "Block_MaterialLP",
      "occlusionTexture": {
        "index": 1,
        "strength": 0.6
      },
      "pbrMetallicRoughness": {
        "baseColorTexture": {
          "index": 0
        },
        "metallicFactor": 0.0,
        "metallicRoughnessTexture": {
          "index": 1
        }
      }
    }
  ],
  "meshes": [
    {
      "name": "defaultMaterial",
      "primitives": [
        {
          "attributes": {
            "NORMAL": 1,
            "POSITION": 0,
            "TEXCOORD_0": 2
          },
          "indices": 3,
          "material": 0,
          "mode": 4
        }
      ]
    }
  ],
  "nodes": [
    {
      "children": [
        1
      ],
      "matrix": [
        1.0,
        0.0,
        0.0,
        0.0,
        0.0,
        2.220446049250313e-16,
        -1.0,
        0.0,
        0.0,
        1.0,
        2.220446049250313e-16,
        0.0,
        0.0,
        0.0,
        0.0,
        1.0
      ],
      "name": "Sketchfab_model"
    },
    {
      "children": [
        2
      ],
      "matrix": [
        1.0,
        0.0,
        0.0,
        0.0,
        0.0,
        -4.371139006309477e-08,
        0.999999999999999,
        0.0,
        0.0,
        -0.999999999999999,
        -4.371139006309477e-08,
        0.0,
        0.0,
        0.0,
        0.0,
        1.0
      ],
      "name": "Collada visual scene group"
    },
    {
      "children": [
        3
      ],
      "name": "Block3"
    },
    {
      "mesh": 0,
      "name": "defaultMaterial"
    }
  ],
  "samplers": [
    {
      "magFilter": 9729,
      "minFilter": 9987,
      "wrapS": 10497,
      "wrapT": 10497
    }
  ],
  "scene": 0,
  "scenes": [
    {
      "name": "Sketchfab_Scene",
      "nodes": [
        0
      ]
    }
  ],
  "textures": [
    {
      "sampler": 0,
      "source": 0
    },
    {
      "sampler": 0,
      "source": 1
    }
  ]
}
